<?xml version="1.0" encoding="utf-8"?>
<!-- Generator: Adobe Illustrator 27.9.0, SVG Export Plug-In . SVG Version: 6.00 Build 0)  -->
<svg version="1.1" id="Layer_1" xmlns="http://www.w3.org/2000/svg" xmlns:xlink="http://www.w3.org/1999/xlink" x="0px" y="0px"
	 viewBox="0 0 500 117" style="enable-background:new 0 0 500 117;" xml:space="preserve">
<path d="M6.17,20.1h8.1v8.1h-8.1V20.1z M6.17,28.2h8.1v8.1h-8.1V28.2z M6.17,36.3h8.1v8.1h-8.1V36.3z M6.17,44.41h8.1v8.1h-8.1
	V44.41z M6.17,52.51h8.1v8.1h-8.1V52.51z M6.17,60.61h8.1v8.1h-8.1V60.61z M6.17,68.71h8.1v8.1h-8.1V68.71z M6.17,76.81h8.1v8.1
	h-8.1V76.81z M14.27,12h8.1v8.1h-8.1V12z M14.27,20.1h8.1v8.1h-8.1V20.1z M14.27,28.2h8.1v8.1h-8.1V28.2z M14.27,36.3h8.1v8.1h-8.1
	V36.3z M14.27,44.41h8.1v8.1h-8.1V44.41z M14.27,52.51h8.1v8.1h-8.1V52.51z M14.27,60.61h8.1v8.1h-8.1V60.61z M14.27,68.71h8.1v8.1
	h-8.1V68.71z M14.27,76.81h8.1v8.1h-8.1V76.81z M14.27,84.91h8.1v8.1h-8.1V84.91z M22.37,12h8.1v8.1h-8.1V12z M22.37,20.1h8.1v8.1
	h-8.1V20.1z M22.37,76.81h8.1v8.1h-8.1V76.81z M22.37,84.91h8.1v8.1h-8.1V84.91z M30.47,12h8.1v8.1h-8.1V12z M30.47,20.1h8.1v8.1
	h-8.1V20.1z M30.47,76.81h8.1v8.1h-8.1V76.81z M30.47,84.91h8.1v8.1h-8.1V84.91z M38.57,12h8.1v8.1h-8.1V12z M38.57,20.1h8.1v8.1
	h-8.1V20.1z M38.57,76.81h8.1v8.1h-8.1V76.81z M38.57,84.91h8.1v8.1h-8.1V84.91z M46.67,12h8.1v8.1h-8.1V12z M46.67,20.1h8.1v8.1
	h-8.1V20.1z M46.67,76.81h8.1v8.1h-8.1V76.81z M46.67,84.91h8.1v8.1h-8.1V84.91z M54.77,12h8.1v8.1h-8.1V12z M54.77,20.1h8.1v8.1
	h-8.1V20.1z M54.77,28.2h8.1v8.1h-8.1V28.2z M54.77,68.71h8.1v8.1h-8.1V68.71z M54.77,76.81h8.1v8.1h-8.1V76.81z M54.77,84.91h8.1
	v8.1h-8.1V84.91z M62.88,20.1h8.1v8.1h-8.1V20.1z M62.88,28.2h8.1v8.1h-8.1V28.2z M62.88,36.3h8.1v8.1h-8.1V36.3z M62.88,44.41h8.1
	v8.1h-8.1V44.41z M62.88,60.61h8.1v8.1h-8.1V60.61z M62.88,68.71h8.1v8.1h-8.1V68.71z M62.88,76.81h8.1v8.1h-8.1V76.81z"/>
<path d="M80.86,25.35h8.1v8.1h-8.1V25.35z M80.86,57.76h8.1v8.1h-8.1V57.76z M80.86,65.86h8.1v8.1h-8.1V65.86z M80.86,73.96h8.1v8.1
	h-8.1V73.96z M80.86,82.06h8.1v8.1h-8.1V82.06z M88.96,25.35h8.1v8.1h-8.1V25.35z M88.96,33.45h8.1v8.1h-8.1V33.45z M88.96,49.65
	h8.1v8.1h-8.1V49.65z M88.96,73.96h8.1v8.1h-8.1V73.96z M88.96,82.06h8.1v8.1h-8.1V82.06z M97.06,25.35h8.1v8.1h-8.1V25.35z
	 M97.06,33.45h8.1v8.1h-8.1V33.45z M97.06,49.65h8.1v8.1h-8.1V49.65z M97.06,73.96h8.1v8.1h-8.1V73.96z M97.06,82.06h8.1v8.1h-8.1
	V82.06z M105.17,25.35h8.1v8.1h-8.1V25.35z M105.17,33.45h8.1v8.1h-8.1V33.45z M105.17,49.65h8.1v8.1h-8.1V49.65z M105.17,73.96h8.1
	v8.1h-8.1V73.96z M105.17,82.06h8.1v8.1h-8.1V82.06z M113.27,25.35h8.1v8.1h-8.1V25.35z M113.27,33.45h8.1v8.1h-8.1V33.45z
	 M113.27,49.65h8.1v8.1h-8.1V49.65z M113.27,73.96h8.1v8.1h-8.1V73.96z M113.27,82.06h8.1v8.1h-8.1V82.06z M121.37,25.35h8.1v8.1
	h-8.1V25.35z M121.37,33.45h8.1v8.1h-8.1V33.45z M121.37,41.55h8.1v8.1h-8.1V41.55z M121.37,49.65h8.1v8.1h-8.1V49.65z
	 M121.37,57.76h8.1v8.1h-8.1V57.76z M121.37,65.86h8.1v8.1h-8.1V65.86z M121.37,73.96h8.1v8.1h-8.1V73.96z M121.37,82.06h8.1v8.1
	h-8.1V82.06z M129.47,33.45h8.1v8.1h-8.1V33.45z M129.47,41.55h8.1v8.1h-8.1V41.55z M129.47,49.65h8.1v8.1h-8.1V49.65z
	 M129.47,57.76h8.1v8.1h-8.1V57.76z M129.47,65.86h8.1v8.1h-8.1V65.86z M129.47,73.96h8.1v8.1h-8.1V73.96z M129.47,82.06h8.1v8.1
	h-8.1V82.06z M129.47,90.16h8.1v8.1h-8.1V90.16z"/>
<path d="M147.21,36.32h8.1v8.1h-8.1V36.32z M147.21,44.43h8.1v8.1h-8.1V44.43z M155.31,28.22h8.1v8.1h-8.1V28.22z M155.31,36.32h8.1
	v8.1h-8.1V36.32z M155.31,44.43h8.1v8.1h-8.1V44.43z M155.31,52.53h8.1v8.1h-8.1V52.53z M155.31,60.63h8.1v8.1h-8.1V60.63z
	 M155.31,68.73h8.1v8.1h-8.1V68.73z M163.41,44.43h8.1v8.1h-8.1V44.43z M163.41,52.53h8.1v8.1h-8.1V52.53z M163.41,60.63h8.1v8.1
	h-8.1V60.63z M163.41,68.73h8.1v8.1h-8.1V68.73z M163.41,76.83h8.1v8.1h-8.1V76.83z M163.41,84.93h8.1v8.1h-8.1V84.93z
	 M163.41,93.04h8.1v8.1h-8.1V93.04z M171.52,76.83h8.1v8.1h-8.1V76.83z M171.52,84.93h8.1v8.1h-8.1V84.93z M179.62,44.43h8.1v8.1
	h-8.1V44.43z M179.62,52.53h8.1v8.1h-8.1V52.53z M179.62,60.63h8.1v8.1h-8.1V60.63z M179.62,68.73h8.1v8.1h-8.1V68.73z
	 M179.62,76.83h8.1v8.1h-8.1V76.83z M179.62,84.93h8.1v8.1h-8.1V84.93z M187.72,28.22h8.1v8.1h-8.1V28.22z M187.72,36.32h8.1v8.1
	h-8.1V36.32z M187.72,44.43h8.1v8.1h-8.1V44.43z M187.72,52.53h8.1v8.1h-8.1V52.53z M187.72,60.63h8.1v8.1h-8.1V60.63z
	 M187.72,68.73h8.1v8.1h-8.1V68.73z M195.82,36.32h8.1v8.1h-8.1V36.32z M195.82,44.43h8.1v8.1h-8.1V44.43z"/>
<path d="M213.56,36.3h8.1v8.1h-8.1V36.3z M213.56,44.41h8.1v8.1h-8.1V44.41z M213.56,52.51h8.1v8.1h-8.1V52.51z M213.56,60.61h8.1
	v8.1h-8.1V60.61z M213.56,68.71h8.1v8.1h-8.1V68.71z M213.56,76.81h8.1v8.1h-8.1V76.81z M221.66,28.2h8.1v8.1h-8.1V28.2z
	 M221.66,36.3h8.1v8.1h-8.1V36.3z M221.66,44.41h8.1v8.1h-8.1V44.41z M221.66,52.51h8.1v8.1h-8.1V52.51z M221.66,60.61h8.1v8.1h-8.1
	V60.61z M221.66,68.71h8.1v8.1h-8.1V68.71z M221.66,76.81h8.1v8.1h-8.1V76.81z M221.66,84.91h8.1v8.1h-8.1V84.91z M229.76,28.2h8.1
	v8.1h-8.1V28.2z M229.76,36.3h8.1v8.1h-8.1V36.3z M229.76,60.61h8.1v8.1h-8.1V60.61z M229.76,76.81h8.1v8.1h-8.1V76.81z
	 M229.76,84.91h8.1v8.1h-8.1V84.91z M237.87,28.2h8.1v8.1h-8.1V28.2z M237.87,36.3h8.1v8.1h-8.1V36.3z M237.87,60.61h8.1v8.1h-8.1
	V60.61z M237.87,76.81h8.1v8.1h-8.1V76.81z M237.87,84.91h8.1v8.1h-8.1V84.91z M245.97,28.2h8.1v8.1h-8.1V28.2z M245.97,36.3h8.1
	v8.1h-8.1V36.3z M245.97,60.61h8.1v8.1h-8.1V60.61z M245.97,76.81h8.1v8.1h-8.1V76.81z M245.97,84.91h8.1v8.1h-8.1V84.91z
	 M254.07,28.2h8.1v8.1h-8.1V28.2z M254.07,36.3h8.1v8.1h-8.1V36.3z M254.07,44.41h8.1v8.1h-8.1V44.41z M254.07,52.51h8.1v8.1h-8.1
	V52.51z M254.07,60.61h8.1v8.1h-8.1V60.61z M254.07,84.91h8.1v8.1h-8.1V84.91z M254.07,93.01h8.1v8.1h-8.1V93.01z M262.17,36.3h8.1
	v8.1h-8.1V36.3z M262.17,44.41h8.1v8.1h-8.1V44.41z M262.17,52.51h8.1v8.1h-8.1V52.51z"/>
<path d="M279.91,20.1h8.1v8.1h-8.1V20.1z M279.91,28.2h8.1v8.1h-8.1V28.2z M279.91,36.3h8.1v8.1h-8.1V36.3z M279.91,44.41h8.1v8.1
	h-8.1V44.41z M279.91,52.51h8.1v8.1h-8.1V52.51z M279.91,60.61h8.1v8.1h-8.1V60.61z M279.91,68.71h8.1v8.1h-8.1V68.71z
	 M279.91,76.81h8.1v8.1h-8.1V76.81z M288.01,12h8.1v8.1h-8.1V12z M288.01,20.1h8.1v8.1h-8.1V20.1z M288.01,28.2h8.1v8.1h-8.1V28.2z
	 M288.01,36.3h8.1v8.1h-8.1V36.3z M288.01,44.41h8.1v8.1h-8.1V44.41z M288.01,52.51h8.1v8.1h-8.1V52.51z M288.01,60.61h8.1v8.1h-8.1
	V60.61z M288.01,68.71h8.1v8.1h-8.1V68.71z M288.01,76.81h8.1v8.1h-8.1V76.81z M288.01,84.91h8.1v8.1h-8.1V84.91z M296.11,12h8.1
	v8.1h-8.1V12z M296.11,20.1h8.1v8.1h-8.1V20.1z M296.11,28.2h8.1v8.1h-8.1V28.2z M296.11,68.71h8.1v8.1h-8.1V68.71z M296.11,76.81
	h8.1v8.1h-8.1V76.81z M296.11,84.91h8.1v8.1h-8.1V84.91z M304.22,12h8.1v8.1h-8.1V12z M304.22,20.1h8.1v8.1h-8.1V20.1z
	 M304.22,76.81h8.1v8.1h-8.1V76.81z M304.22,84.91h8.1v8.1h-8.1V84.91z M312.32,12h8.1v8.1h-8.1V12z M312.32,20.1h8.1v8.1h-8.1V20.1
	z M312.32,76.81h8.1v8.1h-8.1V76.81z M312.32,84.91h8.1v8.1h-8.1V84.91z M320.42,12h8.1v8.1h-8.1V12z M320.42,20.1h8.1v8.1h-8.1
	V20.1z M320.42,52.51h8.1v8.1h-8.1V52.51z M320.42,60.61h8.1v8.1h-8.1V60.61z M320.42,76.81h8.1v8.1h-8.1V76.81z M320.42,84.91h8.1
	v8.1h-8.1V84.91z M328.52,12h8.1v8.1h-8.1V12z M328.52,20.1h8.1v8.1h-8.1V20.1z M328.52,52.51h8.1v8.1h-8.1V52.51z M328.52,76.81
	h8.1v8.1h-8.1V76.81z M328.52,84.91h8.1v8.1h-8.1V84.91z M336.62,12h8.1v8.1h-8.1V12z M336.62,20.1h8.1v8.1h-8.1V20.1z
	 M336.62,52.51h8.1v8.1h-8.1V52.51z M336.62,76.81h8.1v8.1h-8.1V76.81z M336.62,84.91h8.1v8.1h-8.1V84.91z M344.72,12h8.1v8.1h-8.1
	V12z M344.72,20.1h8.1v8.1h-8.1V20.1z M344.72,28.2h8.1v8.1h-8.1V28.2z M344.72,52.51h8.1v8.1h-8.1V52.51z M344.72,60.61h8.1v8.1
	h-8.1V60.61z M344.72,68.71h8.1v8.1h-8.1V68.71z M344.72,76.81h8.1v8.1h-8.1V76.81z M344.72,84.91h8.1v8.1h-8.1V84.91z M352.82,20.1
	h8.1v8.1h-8.1V20.1z M352.82,28.2h8.1v8.1h-8.1V28.2z M352.82,36.3h8.1v8.1h-8.1V36.3z M352.82,52.51h8.1v8.1h-8.1V52.51z
	 M352.82,60.61h8.1v8.1h-8.1V60.61z M352.82,68.71h8.1v8.1h-8.1V68.71z M352.82,76.81h8.1v8.1h-8.1V76.81z"/>
<path d="M371.13,36.3h8.1v8.1h-8.1V36.3z M371.13,44.41h8.1v8.1h-8.1V44.41z M371.13,52.51h8.1v8.1h-8.1V52.51z M371.13,60.61h8.1
	v8.1h-8.1V60.61z M371.13,68.71h8.1v8.1h-8.1V68.71z M371.13,76.81h8.1v8.1h-8.1V76.81z M379.23,28.2h8.1v8.1h-8.1V28.2z
	 M379.23,36.3h8.1v8.1h-8.1V36.3z M379.23,44.41h8.1v8.1h-8.1V44.41z M379.23,52.51h8.1v8.1h-8.1V52.51z M379.23,60.61h8.1v8.1h-8.1
	V60.61z M379.23,68.71h8.1v8.1h-8.1V68.71z M379.23,76.81h8.1v8.1h-8.1V76.81z M379.23,84.91h8.1v8.1h-8.1V84.91z M387.33,28.2h8.1
	v8.1h-8.1V28.2z M387.33,36.3h8.1v8.1h-8.1V36.3z M387.33,60.61h8.1v8.1h-8.1V60.61z M387.33,76.81h8.1v8.1h-8.1V76.81z
	 M387.33,84.91h8.1v8.1h-8.1V84.91z M395.44,28.2h8.1v8.1h-8.1V28.2z M395.44,36.3h8.1v8.1h-8.1V36.3z M395.44,60.61h8.1v8.1h-8.1
	V60.61z M395.44,76.81h8.1v8.1h-8.1V76.81z M395.44,84.91h8.1v8.1h-8.1V84.91z M403.54,28.2h8.1v8.1h-8.1V28.2z M403.54,36.3h8.1
	v8.1h-8.1V36.3z M403.54,60.61h8.1v8.1h-8.1V60.61z M403.54,76.81h8.1v8.1h-8.1V76.81z M403.54,84.91h8.1v8.1h-8.1V84.91z
	 M411.64,28.2h8.1v8.1h-8.1V28.2z M411.64,36.3h8.1v8.1h-8.1V36.3z M411.64,44.41h8.1v8.1h-8.1V44.41z M411.64,52.51h8.1v8.1h-8.1
	V52.51z M411.64,60.61h8.1v8.1h-8.1V60.61z M411.64,84.91h8.1v8.1h-8.1V84.91z M411.64,93.01h8.1v8.1h-8.1V93.01z M419.74,36.3h8.1
	v8.1h-8.1V36.3z M419.74,44.41h8.1v8.1h-8.1V44.41z M419.74,52.51h8.1v8.1h-8.1V52.51z"/>
<path d="M437.48,40.79h8.1v8.1h-8.1V40.79z M437.48,48.9h8.1V57h-8.1V48.9z M437.48,57h8.1v8.1h-8.1V57z M437.48,65.1h8.1v8.1h-8.1
	V65.1z M437.48,73.2h8.1v8.1h-8.1V73.2z M437.48,81.3h8.1v8.1h-8.1V81.3z M445.58,32.69h8.1v8.1h-8.1V32.69z M445.58,40.79h8.1v8.1
	h-8.1V40.79z M445.58,48.9h8.1V57h-8.1V48.9z M445.58,57h8.1v8.1h-8.1V57z M445.58,65.1h8.1v8.1h-8.1V65.1z M445.58,73.2h8.1v8.1
	h-8.1V73.2z M445.58,81.3h8.1v8.1h-8.1V81.3z M445.58,89.4h8.1v8.1h-8.1V89.4z M453.68,32.69h8.1v8.1h-8.1V32.69z M453.68,40.79h8.1
	v8.1h-8.1V40.79z M461.79,32.69h8.1v8.1h-8.1V32.69z M461.79,40.79h8.1v8.1h-8.1V40.79z M469.89,32.69h8.1v8.1h-8.1V32.69z
	 M469.89,40.79h8.1v8.1h-8.1V40.79z M477.99,32.69h8.1v8.1h-8.1V32.69z M477.99,40.79h8.1v8.1h-8.1V40.79z M477.99,48.9h8.1V57h-8.1
	V48.9z M477.99,57h8.1v8.1h-8.1V57z M477.99,65.1h8.1v8.1h-8.1V65.1z M477.99,73.2h8.1v8.1h-8.1V73.2z M477.99,81.3h8.1v8.1h-8.1
	V81.3z M477.99,89.4h8.1v8.1h-8.1V89.4z M486.09,40.79h8.1v8.1h-8.1V40.79z M486.09,48.9h8.1V57h-8.1V48.9z M486.09,57h8.1v8.1h-8.1
	V57z M486.09,65.1h8.1v8.1h-8.1V65.1z M486.09,73.2h8.1v8.1h-8.1V73.2z M486.09,81.3h8.1v8.1h-8.1V81.3z M486.09,89.4h8.1v8.1h-8.1
	V89.4z M486.09,97.5h8.1v8.1h-8.1V97.5z"/>
</svg>
